<svg width="81" height="24" viewBox="0 0 81 24" fill="none" xmlns="http://www.w3.org/2000/svg">
<path fill-rule="evenodd" clip-rule="evenodd" d="M50.985 7.55947C51.5429 7.64972 52.1413 7.8404 52.5345 8.05328C52.9723 8.29033 53.5855 8.92113 53.7971 9.35227C54.1857 10.1438 54.1857 10.1432 54.2128 14.0818L54.2378 17.6896H53.2155C52.6533 17.6896 52.1928 17.668 52.1921 17.6415C52.1914 17.615 52.1494 17.3048 52.0987 16.952C52.048 16.5993 52.0057 16.289 52.0046 16.2625C52.0034 16.2361 51.9334 16.2144 51.8488 16.2144C51.7421 16.2144 51.6535 16.282 51.5597 16.4351C51.3508 16.776 50.7692 17.2777 50.3315 17.4944C49.2986 18.006 47.8255 18.0056 46.7559 17.4934C45.7423 17.0082 45.1989 16.1138 45.1995 14.9317C45.2003 13.3816 45.9476 12.5039 47.6505 12.053C48.2212 11.9019 49.5491 11.7913 50.8101 11.7899L51.621 11.7889L51.6206 11.2597C51.6204 10.9688 51.5899 10.6204 51.5528 10.4855C51.4637 10.162 51.085 9.7464 50.7373 9.5908C50.3939 9.43706 49.6885 9.41474 49.2363 9.54334C48.7921 9.66969 48.3646 10.1083 48.2131 10.5931C48.1212 10.887 48.074 10.9551 47.9617 10.9551C47.7649 10.9551 46.1711 10.8303 45.856 10.7903L45.592 10.7567L45.6822 10.3589C46.019 8.87444 47.2445 7.83591 49.0135 7.53606C49.3422 7.48033 50.5872 7.49508 50.985 7.55947ZM77.8863 7.58686C79.518 8.02429 80.6345 9.50133 80.9098 11.5868C80.9594 11.9625 81 12.4575 81 12.6868C81 13.3479 80.8347 14.4255 80.6493 14.9734C80.0404 16.7724 78.6476 17.8847 77.0087 17.8811C75.8381 17.8785 74.7806 17.3081 74.1008 16.3126C73.9229 16.0521 73.8188 15.9579 73.7089 15.9579C73.5871 15.9579 73.565 15.9848 73.5898 16.1022C73.8074 17.1345 73.8161 16.2783 73.8161 18.8772V20.5H71.2086V7.68403H73.8161V7.8742C73.8161 7.97875 73.7589 8.3612 73.6891 8.72404C73.6193 9.08687 73.562 9.39095 73.5619 9.39973C73.5618 9.40852 73.6261 9.415 73.7048 9.4141C73.8044 9.41295 73.9134 9.31507 74.0634 9.09213C74.5333 8.39347 75.345 7.80166 76.1231 7.59033C76.5611 7.47135 77.4487 7.46962 77.8863 7.58686ZM33.2497 10.4741C33.7479 12.9374 33.8963 13.7253 34.0382 14.6591C34.0725 14.885 34.1036 14.9317 34.2203 14.9317C34.3487 14.9317 34.3677 14.8829 34.4396 14.3705C34.5005 13.9366 35.5641 9.30295 35.9192 7.92455L35.9812 7.68403H38.4915L39.1531 10.458C39.8515 13.3863 39.9268 13.7237 40.0466 14.4667C40.1135 14.882 40.1367 14.9317 40.2631 14.9317C40.3948 14.9317 40.4097 14.8881 40.4779 14.3021C40.5181 13.9559 40.8239 12.3418 41.1573 10.7152C41.4908 9.08866 41.7635 7.74124 41.7635 7.72091C41.7635 7.70064 42.3645 7.68403 43.0991 7.68403C43.8336 7.68403 44.435 7.70571 44.4354 7.73214C44.4359 7.75856 43.8707 10.0098 43.1795 12.7349L41.9228 17.6896L38.9971 17.6891L38.2783 14.6268C37.705 12.1847 37.3766 10.6682 37.3755 10.458C37.3755 10.4492 37.3187 10.442 37.2494 10.442C37.1098 10.442 37.1073 10.4493 36.9609 11.3079C36.9068 11.6253 36.554 13.1839 36.177 14.7713L35.4917 17.6576H32.5149L31.2584 12.7189C30.5673 10.0026 30.001 7.75805 30 7.73085C29.999 7.70372 30.6043 7.68929 31.3451 7.69878L32.692 7.7161L33.2497 10.4741ZM58.6296 10.4741C59.0908 12.7385 59.4391 14.6273 59.4426 14.8836C59.443 14.91 59.5105 14.9317 59.5926 14.9317C59.7322 14.9317 59.7471 14.8947 59.8187 14.3705C59.876 13.9513 61.1146 8.5567 61.3283 7.79627C61.3569 7.69423 61.474 7.68403 62.6146 7.68403H63.8693L64.6126 10.8428C65.0215 12.5802 65.3876 14.2109 65.4262 14.4667C65.4892 14.8834 65.5112 14.9317 65.6381 14.9317C65.7697 14.9317 65.7847 14.888 65.8527 14.3063C65.8929 13.9623 66.1986 12.3551 66.5321 10.7346C66.8656 9.11413 67.1385 7.76478 67.1385 7.73618C67.1385 7.67063 69.8089 7.66659 69.8114 7.73214C69.8123 7.75856 69.248 10.0104 68.5572 12.7361L67.3012 17.6919L64.3727 17.6576L63.7548 15.0599C63.2013 12.7327 62.905 11.3951 62.7851 10.6825C62.755 10.5041 62.7136 10.442 62.6248 10.442C62.5005 10.442 62.4776 10.518 62.306 11.5003C62.269 11.7119 61.9306 13.1839 61.5541 14.7713L60.8693 17.6576H57.8939L56.6365 12.7189C55.945 10.0026 55.3779 7.75805 55.3761 7.73085C55.3745 7.70372 55.9795 7.68929 56.7205 7.69878L58.0679 7.7161L58.6296 10.4741ZM75.3845 9.70381C74.4465 10.0648 73.8955 11.0476 73.8323 12.4721C73.7664 13.9575 74.2498 15.0628 75.1834 15.5616C75.4624 15.7106 75.5755 15.7316 76.1056 15.7324C76.8128 15.7336 77.1351 15.61 77.5706 15.1708C78.1305 14.6061 78.3993 13.8004 78.3993 12.6868C78.3993 11.273 77.9609 10.2996 77.1141 9.83337C76.8204 9.67162 76.6943 9.6432 76.201 9.62781C75.8132 9.61569 75.5499 9.64019 75.3845 9.70381ZM49.2679 13.39C48.3124 13.539 47.8263 13.8976 47.7586 14.5034C47.6902 15.1154 47.8916 15.5149 48.4015 15.7784C48.8077 15.9883 49.7531 16.0163 50.2347 15.8327C51.0459 15.5233 51.5623 14.7693 51.6096 13.8253L51.6345 13.3282L50.5943 13.3368C50.0222 13.3415 49.4253 13.3654 49.2679 13.39Z" fill="#DDFFDD"/>
<path d="M7 0C7.55228 0 8 0.447715 8 1V3H16V1C16 0.447715 16.4477 0 17 0H19C19.5523 0 20 0.447715 20 1V3C22.2091 3 24 4.79086 24 7V17C24 19.2091 22.2091 21 20 21H17C17 21 14 24 12 24C10 24 7 21 7 21H4C1.79086 21 1.61067e-08 19.2091 0 17V7C0 4.79086 1.79086 3 4 3V1C4 0.447715 4.44772 0 5 0H7ZM4 5C2.89543 5 2 5.89543 2 7V17C2 18.1046 2.89543 19 4 19H20C21.1046 19 22 18.1046 22 17V7C22 5.89543 21.1046 5 20 5H4ZM9 9C9.55228 9 10 9.44772 10 10V14C10 14.5523 9.55228 15 9 15H7C6.44772 15 6 14.5523 6 14V10C6 9.44772 6.44772 9 7 9H9ZM17 9C17.5523 9 18 9.44772 18 10V14C18 14.5523 17.5523 15 17 15H15C14.4477 15 14 14.5523 14 14V10C14 9.44772 14.4477 9 15 9H17Z" fill="#DDFFDD"/>
</svg>
