<?xml version="1.0" encoding="UTF-8"?>
<svg version="1.1" xmlns="http://www.w3.org/2000/svg" width="160" height="160">
<path d="M0 0 C52.8 0 105.6 0 160 0 C160 52.8 160 105.6 160 160 C107.2 160 54.4 160 0 160 C0 107.2 0 54.4 0 0 Z " fill="#3C087E" transform="translate(0,0)"/>
<path d="M0 0 C0.82160614 -0.0071553 1.64321228 -0.01431061 2.48971558 -0.02168274 C5.20407825 -0.03858332 7.91679222 -0.01915844 10.63110352 0.00219727 C12.51913083 0.00136861 14.40715806 -0.00109065 16.29518127 -0.00511169 C20.25218421 -0.00797072 24.20862145 0.00674026 28.16552734 0.03417969 C33.23441656 0.06823934 38.30229262 0.06225303 43.37123013 0.04351711 C47.27037476 0.03294052 51.16928427 0.04189133 55.06840706 0.05690193 C56.93708663 0.06208094 58.80579079 0.06160535 60.67446709 0.05535698 C63.28872188 0.04989772 65.90153458 0.07030258 68.515625 0.09765625 C69.28617722 0.09113037 70.05672943 0.08460449 70.85063171 0.07788086 C74.4092026 0.1410962 76.68779751 0.55508692 79.80621338 2.31477356 C82.29455226 5.17338796 82.43238533 6.47415336 82.39013672 10.22583008 C82.38975906 11.34669006 82.38938141 12.46755005 82.38899231 13.62237549 C82.36318588 14.82666199 82.33737946 16.03094849 82.31079102 17.27172852 C82.30371628 18.50904724 82.29664154 19.74636597 82.28935242 21.0211792 C82.26611151 24.30308078 82.22122931 27.58374783 82.16583252 30.86523438 C82.11458746 34.21676252 82.09225402 37.56834374 82.06665039 40.92016602 C82.01150711 47.49096114 81.92782242 54.06093137 81.82250977 60.63110352 C82.61181885 60.92533203 83.40112793 61.21956055 84.21435547 61.52270508 C89.28295978 63.67673143 91.93313397 68.73107342 94.19750977 73.56860352 C95.64777299 80.67489329 95.34034086 87.17299568 91.82250977 93.63110352 C87.42180739 99.97242743 80.88194823 103.47790887 73.38891602 105.18579102 C67.2587157 105.55731831 61.73317082 103.18333051 56.82250977 99.63110352 C56.28197968 98.79986214 56.28197968 98.79986214 55.73052979 97.951828 C53.58110022 94.68976651 51.96943446 92.89161891 48.07865906 92.00785828 C44.60967277 91.80740105 41.19865438 91.81943048 37.72485352 91.90454102 C36.45783096 91.90410797 35.19080841 91.90367493 33.88539124 91.90322876 C30.52761063 91.90434053 27.17266531 91.93262712 23.81536865 91.97833252 C19.08478936 92.04224977 14.35495097 92.08358312 9.62391663 92.08755493 C7.10849742 92.09049621 4.5929681 92.11730555 2.07810974 92.17050171 C0.93664993 92.17345245 -0.20480988 92.1764032 -1.38085938 92.17944336 C-2.38202286 92.19389496 -3.38318634 92.20834656 -4.41468811 92.22323608 C-8.37658485 91.37410973 -9.7934953 89.87337806 -12.17749023 86.63110352 C-12.66795254 83.787044 -12.85392865 81.54386931 -12.80859375 78.70727539 C-12.81574905 77.92453751 -12.82290436 77.14179962 -12.83027649 76.33534241 C-12.84714107 73.75624655 -12.82777558 71.17889455 -12.80639648 68.59985352 C-12.8072254 66.80293637 -12.80968562 65.00601929 -12.81370544 63.20910645 C-12.8165619 59.44638192 -12.80187745 55.68425315 -12.77441406 51.92163086 C-12.74033132 47.10273761 -12.74635081 42.2849095 -12.76507664 37.46596527 C-12.77565407 33.75640005 -12.7667021 30.04708193 -12.75169182 26.33753967 C-12.74651499 24.56096633 -12.74698576 22.78436713 -12.75323677 21.00779724 C-12.75869808 18.5229459 -12.73828627 16.03961019 -12.7109375 13.55493164 C-12.71746338 12.82335342 -12.72398926 12.09177521 -12.73071289 11.33802795 C-12.66778531 7.96924857 -12.2034348 5.6814809 -10.65524292 2.67530823 C-7.23679985 -0.14498835 -4.242404 -0.06420469 0 0 Z " fill="#EFE9FD" transform="translate(45.177490234375,32.368896484375)"/>
<path d="M0 0 C0.33 0 0.66 0 1 0 C1 18.48 1 36.96 1 56 C2.65 56.66 4.3 57.32 6 58 C11.20183802 63.21358031 13.99819651 69.0202984 14.3125 76.375 C14.13376661 83.45284207 11.74760865 88.77350213 7 94 C1.37741483 97.75110241 -4.86677409 101.06746722 -11.77734375 100.515625 C-16.54191056 99.41031249 -22.31551484 97.59560181 -25.08580017 93.3269043 C-27.24515535 90.04544018 -28.87834187 88.26548905 -32.77818298 87.34242249 C-36.29245209 87.09316339 -39.75048518 87.057081 -43.2734375 87.09765625 C-44.55231842 87.08536484 -45.83119934 87.07307343 -47.14883423 87.06040955 C-50.53304549 87.03405824 -53.9145089 87.03758788 -57.29858398 87.05578613 C-60.7577992 87.06697113 -64.21667126 87.03861485 -67.67578125 87.01367188 C-74.45079036 86.97280924 -81.22494744 86.97135173 -88 87 C-88 86.67 -88 86.34 -88 86 C-69.19 86 -50.38 86 -31 86 C-31.66 84.35 -32.32 82.7 -33 81 C-33.66211225 72.92223053 -31.94272554 67.0749356 -26.8125 60.75 C-22.5316537 56.20997929 -18.5040921 53.33580883 -12.1875 52.73046875 C-7.8522443 52.66705411 -4.22607778 52.94348055 0 54 C0 36.18 0 18.36 0 0 Z " fill="#8843F9" transform="translate(126,37)"/>
<path d="M0 0 C4.95 0 9.9 0 15 0 C15 1.32 15 2.64 15 4 C12.69 4.33 10.38 4.66 8 5 C9.423125 6.2065625 9.423125 6.2065625 10.875 7.4375 C11.67550781 8.11619141 11.67550781 8.11619141 12.4921875 8.80859375 C15.22771621 10.97008664 16.90078311 11.13876299 20.3125 10.875 C25.02448338 10.3162071 26.8667791 8.58082389 30 5 C32.3125 4.1875 32.3125 4.1875 34 4 C34.495 4.99 34.495 4.99 35 6 C34.11687962 7.13500694 33.21781145 8.25761307 32.3125 9.375 C31.81363281 10.00148438 31.31476563 10.62796875 30.80078125 11.2734375 C26.41253309 15.48082511 21.35519148 15.37006434 15.59375 15.25390625 C11.14183726 14.81810154 8.97332708 13.17470509 6.1875 9.8125 C5.5996875 8.9153125 5.5996875 8.9153125 5 8 C4.67 10.64 4.34 13.28 4 16 C2.68 16 1.36 16 0 16 C0 10.72 0 5.44 0 0 Z " fill="#4B1A88" transform="translate(61,82)"/>
<path d="M0 0 C1.32 0 2.64 0 4 0 C4 5.28 4 10.56 4 16 C-0.95 16 -5.9 16 -11 16 C-11 14.68 -11 13.36 -11 12 C-7.535 11.505 -7.535 11.505 -4 11 C-8.64019104 6.47581374 -11.45203377 5 -18 5 C-22.23076662 6.51668992 -24.62737002 8.17742948 -27 12 C-28.32 11.67 -29.64 11.34 -31 11 C-28.57068408 6.39708563 -25.68796305 3.34398152 -21 1 C-15.65958894 0.46770413 -11.32305104 0.31484857 -6.5 2.8125 C-2.58823529 6.23529412 -2.58823529 6.23529412 -1 8 C-0.67 5.36 -0.34 2.72 0 0 Z " fill="#491987" transform="translate(95,62)"/>
<path d="M0 0 C1.32 0 2.64 0 4 0 C4 1.32 4 2.64 4 4 C5.32 4 6.64 4 8 4 C8 4.99 8 5.98 8 7 C4.7 7 1.4 7 -2 7 C-2 8.32 -2 9.64 -2 11 C-1.113125 11.12375 -0.22625 11.2475 0.6875 11.375 C6.43119266 12.4587156 6.43119266 12.4587156 9 14 C10 16.9375 10 16.9375 10 20 C8.75 21.875 8.75 21.875 7 23 C6.01 23 5.02 23 4 23 C4 24.32 4 25.64 4 27 C2.68 27 1.36 27 0 27 C0 25.68 0 24.36 0 23 C-1.98 22.67 -3.96 22.34 -6 22 C-6 20.68 -6 19.36 -6 18 C-5.484375 18.165 -4.96875 18.33 -4.4375 18.5 C-1.26636124 19.15049 1.77218334 19.0620734 5 19 C5.33 18.01 5.66 17.02 6 16 C5.38511719 15.87882812 4.77023438 15.75765625 4.13671875 15.6328125 C2.92435547 15.38144531 2.92435547 15.38144531 1.6875 15.125 C0.88699219 14.96257812 0.08648437 14.80015625 -0.73828125 14.6328125 C-3 14 -3 14 -6 12 C-5.67 9.69 -5.34 7.38 -5 5 C-3.35 4.67 -1.7 4.34 0 4 C0 2.68 0 1.36 0 0 Z " fill="#F4EEFF" transform="translate(115,100)"/>
</svg>
